<svg width="41" height="40" viewBox="0 0 41 40" fill="none" xmlns="http://www.w3.org/2000/svg">
<path d="M32.7415 29.1667C34.7415 26.6667 35.9082 23.5 35.9082 20C35.9082 11.6667 29.2415 5 20.9082 5C12.5749 5 5.9082 11.6667 5.9082 20C5.9082 28.3333 12.5749 35 20.9082 35C22.4082 35 23.9082 34.8333 25.2415 34.3333C26.0749 34.1667 26.9082 33.8333 27.5749 33.3333" stroke="#003EBB" stroke-width="2" stroke-miterlimit="10" stroke-linecap="round" stroke-linejoin="round"/>
<path d="M35.9082 35C35.4184 35 34.9286 35 34.4388 35C31.9898 35 29.8674 34.4 27.9082 33" stroke="#003EBB" stroke-width="2" stroke-miterlimit="10" stroke-linecap="round" stroke-linejoin="round"/>
<path d="M32.9082 29C33.0661 31.4 34.3293 33.4571 35.9082 35" stroke="#003EBB" stroke-width="2" stroke-miterlimit="10" stroke-linecap="round" stroke-linejoin="round"/>
<path d="M27.9082 21C27.3559 21 26.9082 20.5523 26.9082 20C26.9082 19.4477 27.3559 19 27.9082 19C28.4605 19 28.9082 19.4477 28.9082 20C28.9082 20.5523 28.4605 21 27.9082 21Z" fill="#003EBB" stroke="#003EBB" stroke-width="2" stroke-miterlimit="10" stroke-linecap="round" stroke-linejoin="round"/>
<path d="M20.9082 21C20.3559 21 19.9082 20.5523 19.9082 20C19.9082 19.4477 20.3559 19 20.9082 19C21.4605 19 21.9082 19.4477 21.9082 20C21.9082 20.5523 21.4605 21 20.9082 21Z" fill="#003EBB" stroke="#003EBB" stroke-width="2" stroke-miterlimit="10" stroke-linecap="round" stroke-linejoin="round"/>
<path d="M12.9082 21C12.3559 21 11.9082 20.5523 11.9082 20C11.9082 19.4477 12.3559 19 12.9082 19C13.4605 19 13.9082 19.4477 13.9082 20C13.9082 20.5523 13.4605 21 12.9082 21Z" fill="#003EBB" stroke="#003EBB" stroke-width="2" stroke-miterlimit="10" stroke-linecap="round" stroke-linejoin="round"/>
</svg>
