<svg width="223" height="34" viewBox="0 0 223 34" fill="none" xmlns="http://www.w3.org/2000/svg">
<path d="M100.13 10.3402L104.908 7H88.9082V27H104.908V23.662H93.4796V18.5551H103.246V15.217H93.4796V10.3402H100.13Z" fill="#C2C2C2"/>
<path d="M77.9004 14.7895H72.4252V10.338H81.1851L85.9082 7H67.9082V27H77.3182C82.5873 27 85.6341 24.7081 85.6341 20.7146C85.6341 16.7211 82.8976 14.7895 77.9004 14.7895ZM77.1483 23.6598H72.4252V18.1275H77.1483C80.023 18.1275 81.3572 19.0434 81.3572 20.9099C81.3572 22.7765 79.921 23.6598 77.1483 23.6598Z" fill="#C2C2C2"/>
<path d="M117.243 7H108.908V27H113.291V21.3375H117.276C122.589 21.3375 125.908 18.5876 125.908 14.1687C125.908 9.74986 122.587 7 117.241 7H117.243ZM117.144 17.9973H113.26V10.338H117.144C119.967 10.338 121.494 11.7119 121.494 14.1687C121.494 16.6256 119.967 17.9995 117.144 17.9995V17.9973Z" fill="#C2C2C2"/>
<path d="M60.0008 23.3073C58.8108 23.9446 57.4858 24.2776 56.1271 24.2776C52.0825 24.2776 49.1603 21.431 49.1603 17.514C49.1603 13.5971 52.0825 10.7504 56.1271 10.7504C57.5893 10.7171 59.0155 11.1856 60.2055 12.0228L63.4335 9.67791L63.2288 9.47807C61.3595 7.83713 58.8445 7 55.9899 7C52.8968 7 50.0781 8.03919 48.0378 9.91328C45.9998 11.8562 44.8435 14.5674 44.911 17.3808C44.8773 20.2275 45.9975 22.9742 48.0378 24.9838C50.1794 26.96 53.034 28.0658 55.9561 27.997C59.1842 27.997 62.0051 26.8912 63.9082 24.8816L61.0198 22.7722L60.0008 23.3073Z" fill="#C2C2C2"/>
<path d="M179.676 7.0364V27.9977H184.082V19.4221H193.464V27.9977H197.871V7.0364H193.464V15.6461H184.082V7.0364H179.676ZM172.097 27.9977H176.738L168.126 7.0364H163.653L154.872 27.9977H159.312L161.083 23.7782H170.431L172.1 27.9977H172.097ZM162.415 20.2797L165.821 11.8747L169.025 20.2797H162.415ZM207.752 19.5245H210.49L217.233 27.9636H222.908L213.894 17.1224L221.772 7.00227H216.731L210.187 15.9896H207.75V7H203.343V27.9613H207.75V19.5222L207.752 19.5245ZM140.315 15.2026V10.5372H151.831V7.03867H135.908V28H145.089C150.229 28 153.202 25.5979 153.202 21.4125C153.202 17.227 150.532 15.2026 145.657 15.2026H140.315ZM140.315 24.4992V18.701H144.923C147.727 18.701 149.029 19.661 149.029 21.6172C149.029 23.5734 147.661 24.5334 144.923 24.5334H140.315V24.4992Z" fill="#C2C2C2"/>
<path d="M31.8636 7C32.6695 8.05311 33.3399 9.20522 33.9082 10.4271L18.415 22L11.9082 17.8596V12.9046L18.3794 17.0113L31.8614 7H31.8636Z" fill="#C2C2C2"/>
<path d="M4.9413 16.88C4.9413 16.642 4.9413 16.44 4.97554 16.202L0.94244 16C0.94244 16.2716 0.908203 16.5747 0.908203 16.8463C0.908203 21.5852 2.8734 25.8864 6.04601 29L8.9082 26.1894C6.45913 23.8189 4.94358 20.5346 4.94358 16.88H4.9413Z" fill="#C2C2C2"/>
<path d="M18.0275 4.03544C18.265 4.03544 18.4667 4.03544 18.7043 4.06973L18.9082 0.0342955C18.637 0.0342955 18.3323 0 18.0611 0C13.3214 0 9.02094 1.96628 5.9082 5.13747L8.71841 8C11.0871 5.5513 14.406 4.03544 18.0275 4.03544Z" fill="#C2C2C2"/>
<path d="M17.7889 29.9646C17.5514 29.9646 17.3497 29.9646 17.1121 29.9303L16.9082 33.9657C17.1794 33.9657 17.4841 34 17.7553 34C22.495 34 26.7932 32.0337 29.9082 28.8625L27.098 26C24.7293 28.483 21.444 29.9646 17.7889 29.9646Z" fill="#C2C2C2"/>
<path d="M25.495 5.99786L28.9082 3.64362C25.9082 1.38774 22.0794 0 17.9082 0V3.77406C20.737 3.80613 23.358 4.61226 25.495 6V5.99786Z" fill="#C2C2C2"/>
<path d="M34.9082 17.1164C34.9082 16.0534 34.8113 15.0267 34.6478 14L31.103 16.7757V17.1187C31.103 21.0574 29.478 24.5872 26.9082 27.0199L29.4759 30C32.7925 26.8472 34.906 22.2226 34.906 17.1187L34.9082 17.1164Z" fill="#C2C2C2"/>
<path d="M17.9082 30.1962C13.9327 30.1962 10.3714 28.5704 7.9156 26L4.9082 28.5682C8.12387 31.917 12.7563 34 17.9082 34V30.1941V30.1962Z" fill="#C2C2C2"/>
<path d="M8.9082 7.00811L6.33985 4C2.99001 7.21446 0.908203 11.8481 0.908203 17H4.71229C4.71229 13.0587 6.3377 9.46138 8.9082 7.00582V7.00811Z" fill="#C2C2C2"/>
</svg>
